<svg xmlns="http://www.w3.org/2000/svg" version="1.1" viewBox="-5.0 -10.0 110.0 135.0">
  <path d="m62.562 0-3.793 26.082-1.8008-0.011719-3.375-25.672zm-26.879 6.9102 17.469 19.734-1.1719 1.3672-21.785-13.996zm27.57 21.273 22.945-12.961-5.8008-6.8516-18.238 18.383zm-55.07-0.62109h9.3164c1.2539 0 2.3438 0.85156 2.6484 2.0664l10.469 41.871c0.91016 3.6445 4.1797 6.1992 7.9336 6.1992h37.191c3.6875 0 6.918-2.4648 7.8906-6.0234l7.1133-25.996c1.4219-5.207-2.4961-10.34-7.8945-10.34h-55.656l-1.7578-7.0312c-0.91016-3.6445-4.1836-6.1992-7.9375-6.1992h-9.3164zm27.723 42.617-7.3438-29.387h54.289c1.8008 0 3.1055 1.7109 2.6328 3.4492l-7.1133 25.996c-0.32422 1.1836-1.4023 2.0078-2.6289 2.0078h-37.191c-1.25 0-2.3398-0.85156-2.6445-2.0664zm6.3945 23.863c1.4102 0 2.5547-1.1445 2.5547-2.5547 0-1.4102-1.1445-2.5508-2.5547-2.5508-1.4102 0-2.5547 1.1406-2.5547 2.5508 0 1.4102 1.1445 2.5547 2.5547 2.5547zm0 5.4531c4.4219 0 8.0078-3.582 8.0078-8.0078 0-4.4219-3.5859-8.0078-8.0078-8.0078s-8.0078 3.5859-8.0078 8.0078c0 4.4258 3.5859 8.0078 8.0078 8.0078zm33.191-8.0078c0 1.4102-1.1406 2.5547-2.5508 2.5547s-2.5547-1.1445-2.5547-2.5547c0-1.4102 1.1445-2.5508 2.5547-2.5508s2.5508 1.1406 2.5508 2.5508zm5.457 0c0 4.4258-3.5859 8.0078-8.0078 8.0078s-8.0078-3.582-8.0078-8.0078c0-4.4219 3.5859-8.0078 8.0078-8.0078s8.0078 3.5859 8.0078 8.0078zm-38.016-44.125c1.457-0.38672 2.9492 0.48047 3.3398 1.9336l3.6328 13.637c0.39062 1.457-0.47656 2.9492-1.9297 3.3398-1.457 0.38672-2.9492-0.48047-3.3398-1.9336l-3.6367-13.637c-0.38672-1.457 0.47656-2.9492 1.9336-3.3398zm25.34 1.9336c0.38672-1.4531 1.8828-2.3203 3.3398-1.9336 1.4531 0.39062 2.3203 1.8828 1.9297 3.3398l-3.6367 13.637c-0.38672 1.4531-1.8789 2.3203-3.3359 1.9336-1.457-0.39063-2.3203-1.8828-1.9336-3.3398z" fill-rule="evenodd" />
</svg>
